<?xml version="1.0" encoding="utf-8"?>
<!-- Generator: Adobe Illustrator 22.0.0, SVG Export Plug-In . SVG Version: 6.00 Build 0)  -->
<svg version="1.1" id="Layer_1" xmlns="http://www.w3.org/2000/svg" xmlns:xlink="http://www.w3.org/1999/xlink" x="0px" y="0px"
	 viewBox="0 0 18 18" style="enable-background:new 0 0 18 18;" xml:space="preserve">
<style type="text/css">
	.st0{fill:#0D0D0D;}
</style>
<path class="st0" d="M17.7,16.5c0.4,0.4,0.4,0.9,0,1.3c-0.2,0.2-0.4,0.3-0.6,0.3c-0.3,0-0.5-0.1-0.6-0.3L9,10.3l-7.5,7.5
	c-0.4,0.4-0.9,0.4-1.3,0C0.1,17.5,0,17.4,0,17.1c0-0.3,0.1-0.5,0.3-0.6L7.7,9L0.3,1.5c-0.4-0.4-0.4-0.9,0-1.3s0.9-0.4,1.3,0L9,7.7
	l7.5-7.5c0.4-0.4,0.9-0.4,1.3,0c0.4,0.4,0.4,0.9,0,1.3L10.3,9L17.7,16.5z"/>
</svg>
