<?xml version="1.0" encoding="utf-8"?>
<!-- Generator: Adobe Illustrator 22.0.0, SVG Export Plug-In . SVG Version: 6.00 Build 0)  -->
<svg version="1.1" id="Layer_1" xmlns="http://www.w3.org/2000/svg" xmlns:xlink="http://www.w3.org/1999/xlink" x="0px" y="0px"
	 viewBox="0 0 20 20" style="enable-background:new 0 0 20 20;" xml:space="preserve">
<style type="text/css">
	.st0{fill:#0D0D0D;}
</style>
<path class="st0" d="M19,9H5C4.4,9,4,8.6,4,8s0.4-1,1-1h14c0.6,0,1,0.4,1,1S19.6,9,19,9z M10,4c0-0.6-0.4-1-1-1H1C0.4,3,0,3.4,0,4
	s0.4,1,1,1h8C9.6,5,10,4.6,10,4z M11,12c0-0.6-0.4-1-1-1H5c-0.6,0-1,0.4-1,1s0.4,1,1,1h5C10.6,13,11,12.6,11,12z M6,16
	c0-0.6-0.4-1-1-1H1c-0.6,0-1,0.4-1,1s0.4,1,1,1h4C5.6,17,6,16.6,6,16z"/>
</svg>
