<?xml version="1.0" encoding="utf-8"?>
<!-- Generator: Adobe Illustrator 22.0.0, SVG Export Plug-In . SVG Version: 6.00 Build 0)  -->
<svg version="1.1" id="Layer_1" xmlns="http://www.w3.org/2000/svg" xmlns:xlink="http://www.w3.org/1999/xlink" x="0px" y="0px"
	 viewBox="0 0 20 20" style="enable-background:new 0 0 20 20;" xml:space="preserve">
<style type="text/css">
	.st0{fill:#0D0D0D;}
</style>
<path class="st0" d="M17,20h-3c-0.6,0-1-0.4-1-1s0.4-1,1-1h3c0.3,0,0.5-0.1,0.7-0.3S18,17.3,18,17v-3c0-0.6,0.4-1,1-1s1,0.4,1,1v3
	c0,0.8-0.3,1.6-0.9,2.1S17.8,20,17,20z M6,20H3c-0.8,0-1.6-0.3-2.1-0.9C0.3,18.6,0,17.8,0,17v-3c0-0.6,0.4-1,1-1s1,0.4,1,1v3
	c0,0.3,0.1,0.5,0.3,0.7C2.5,17.9,2.7,18,3,18h3c0.6,0,1,0.4,1,1S6.6,20,6,20z M19,7c-0.6,0-1-0.4-1-1V3c0-0.3-0.1-0.5-0.3-0.7
	C17.5,2.1,17.3,2,17,2h-3c-0.6,0-1-0.4-1-1s0.4-1,1-1h3c0.8,0,1.6,0.3,2.1,0.9C19.7,1.4,20,2.2,20,3v3C20,6.6,19.6,7,19,7z M1,7
	C0.4,7,0,6.6,0,6V3c0-0.8,0.3-1.6,0.9-2.1C1.4,0.3,2.2,0,3,0h3c0.6,0,1,0.4,1,1S6.6,2,6,2H3C2.7,2,2.5,2.1,2.3,2.3
	C2.1,2.5,2,2.7,2,3v3C2,6.6,1.6,7,1,7z"/>
</svg>
