<?xml version="1.0" encoding="utf-8"?>
<svg version="1.1" id="Layer_1" xmlns="http://www.w3.org/2000/svg" xmlns:xlink="http://www.w3.org/1999/xlink" x="0px" y="0px"
	 viewBox="0 0 24 24" style="enable-background:new 0 0 24 24;" xml:space="preserve">
<style type="text/css">
	.st0{opacity:0.2;enable-background:new;}
	.st1{fill:#FFFFFF;}
	.st2{opacity:0.7;enable-background:new;}
	.st3{opacity:0.6;enable-background:new;}
	.st4{opacity:0.9;enable-background:new;}
	.st5{opacity:0.4;enable-background:new;}
	.st6{opacity:0.8;enable-background:new;}
	.st7{opacity:0.3;enable-background:new;}
</style>
<g class="st0">
	<path class="st1" d="M12,7c-0.6,0-1-0.4-1-1V2c0-0.6,0.4-1,1-1s1,0.4,1,1v4C13,6.6,12.6,7,12,7z"/>
</g>
<g class="st2">
	<path class="st1" d="M12,23c-0.6,0-1-0.4-1-1v-4c0-0.6,0.4-1,1-1s1,0.4,1,1v4C13,22.6,12.6,23,12,23z"/>
</g>
<g>
	<path class="st1" d="M7.8,8.8c-0.3,0-0.5-0.1-0.7-0.3L4.2,5.6c-0.4-0.4-0.4-1,0-1.4s1-0.4,1.4,0l2.8,2.8c0.4,0.4,0.4,1,0,1.4
		C8.3,8.7,8,8.8,7.8,8.8z"/>
</g>
<g class="st3">
	<path class="st1" d="M19.1,20.1c-0.3,0-0.5-0.1-0.7-0.3l-2.8-2.8c-0.4-0.4-0.4-1,0-1.4s1-0.4,1.4,0l2.8,2.8c0.4,0.4,0.4,1,0,1.4
		C19.6,20,19.3,20.1,19.1,20.1z"/>
</g>
<g class="st4">
	<path class="st1" d="M6,13H2c-0.6,0-1-0.4-1-1s0.4-1,1-1h4c0.6,0,1,0.4,1,1S6.6,13,6,13z"/>
</g>
<g class="st5">
	<path class="st1" d="M22,13h-4c-0.6,0-1-0.4-1-1s0.4-1,1-1h4c0.6,0,1,0.4,1,1S22.6,13,22,13z"/>
</g>
<g class="st6">
	<path class="st1" d="M4.9,20.1c-0.3,0-0.5-0.1-0.7-0.3c-0.4-0.4-0.4-1,0-1.4l2.8-2.8c0.4-0.4,1-0.4,1.4,0s0.4,1,0,1.4l-2.8,2.8
		C5.4,20,5.2,20.1,4.9,20.1z"/>
</g>
<g class="st7">
	<path class="st1" d="M16.2,8.8c-0.3,0-0.5-0.1-0.7-0.3c-0.4-0.4-0.4-1,0-1.4l2.8-2.8c0.4-0.4,1-0.4,1.4,0s0.4,1,0,1.4l-2.8,2.8
		C16.8,8.7,16.5,8.8,16.2,8.8z"/>
</g>
</svg>
