<?xml version="1.0" encoding="utf-8"?>
<!-- Generator: Adobe Illustrator 22.0.0, SVG Export Plug-In . SVG Version: 6.00 Build 0)  -->
<svg version="1.1" id="Layer_1" xmlns="http://www.w3.org/2000/svg" xmlns:xlink="http://www.w3.org/1999/xlink" x="0px" y="0px"
	 viewBox="0 0 20 20" style="enable-background:new 0 0 20 20;" xml:space="preserve">
<style type="text/css">
	.st0{fill:#0D0D0D;}
</style>
<path class="st0" d="M8,19c0,0.6-0.4,1-1,1H3c-0.8,0-1.6-0.3-2.1-0.9C0.3,18.6,0,17.8,0,17V3c0-0.8,0.3-1.6,0.9-2.1
	C1.4,0.3,2.2,0,3,0h4c0.6,0,1,0.4,1,1S7.6,2,7,2H3C2.7,2,2.5,2.1,2.3,2.3C2.1,2.5,2,2.7,2,3v14c0,0.3,0.1,0.5,0.3,0.7
	C2.5,17.9,2.7,18,3,18h4C7.6,18,8,18.4,8,19z M19.9,10.4c0.1-0.2,0.1-0.5,0-0.8c-0.1-0.1-0.1-0.2-0.2-0.3l-5-5c-0.4-0.4-1-0.4-1.4,0
	s-0.4,1,0,1.4L16.6,9H7c-0.6,0-1,0.4-1,1s0.4,1,1,1h9.6l-3.3,3.3c-0.4,0.4-0.4,1,0,1.4c0.2,0.2,0.5,0.3,0.7,0.3s0.5-0.1,0.7-0.3l5-5
	C19.8,10.6,19.9,10.5,19.9,10.4z"/>
</svg>
