<?xml version="1.0" encoding="utf-8"?>
<svg version="1.1" id="Layer_1" xmlns="http://www.w3.org/2000/svg" xmlns:xlink="http://www.w3.org/1999/xlink" x="0px" y="0px"
	 viewBox="0 0 24 24" style="enable-background:new 0 0 24 24;" xml:space="preserve">
<style type="text/css">
	.st0{fill:#CF2C00;}
</style>
<path class="st0" d="M12,1C5.9,1,1,5.9,1,12s4.9,11,11,11s11-4.9,11-11S18.1,1,12,1z M12,21c-5,0-9-4-9-9c0-5,4-9,9-9c5,0,9,4,9,9
	C21,17,17,21,12,21z M17,15c0,0.6-0.4,1-1,1H8c-0.6,0-1-0.4-1-1s0.4-1,1-1h8C16.6,14,17,14.4,17,15z M8,9c0-0.6,0.4-1,1-1h0
	c0.6,0,1,0.4,1,1s-0.4,1-1,1S8,9.6,8,9z M14,9c0-0.6,0.4-1,1-1h0c0.6,0,1,0.4,1,1s-0.4,1-1,1S14,9.6,14,9z"/>
</svg>
