<?xml version="1.0" encoding="utf-8"?>
<!-- Generator: Adobe Illustrator 22.0.0, SVG Export Plug-In . SVG Version: 6.00 Build 0)  -->
<svg version="1.1" id="Layer_1" xmlns="http://www.w3.org/2000/svg" xmlns:xlink="http://www.w3.org/1999/xlink" x="0px" y="0px"
	 viewBox="0 0 20 20" style="enable-background:new 0 0 20 20;" xml:space="preserve">
<style type="text/css">
	.st0{fill:#0D0D0D;}
</style>
<path class="st0" d="M14,20c-0.6,0-1-0.4-1-1v-3c0-0.8,0.3-1.6,0.9-2.1S15.2,13,16,13h3c0.6,0,1,0.4,1,1s-0.4,1-1,1h-3
	c-0.3,0-0.5,0.1-0.7,0.3S15,15.7,15,16v3C15,19.6,14.6,20,14,20z M6,20c-0.6,0-1-0.4-1-1v-3c0-0.3-0.1-0.5-0.3-0.7
	C4.5,15.1,4.3,15,4,15H1c-0.6,0-1-0.4-1-1s0.4-1,1-1h3c0.8,0,1.6,0.3,2.1,0.9C6.7,14.4,7,15.2,7,16v3C7,19.6,6.6,20,6,20z M19,7h-3
	c-0.8,0-1.6-0.3-2.1-0.9C13.3,5.6,13,4.8,13,4V1c0-0.6,0.4-1,1-1s1,0.4,1,1v3c0,0.3,0.1,0.5,0.3,0.7C15.5,4.9,15.7,5,16,5h3
	c0.6,0,1,0.4,1,1S19.6,7,19,7z M4,7H1C0.4,7,0,6.6,0,6s0.4-1,1-1h3c0.3,0,0.5-0.1,0.7-0.3C4.9,4.5,5,4.3,5,4V1c0-0.6,0.4-1,1-1
	s1,0.4,1,1v3c0,0.8-0.3,1.6-0.9,2.1C5.6,6.7,4.8,7,4,7z"/>
</svg>
